<svg width="48" height="48" viewBox="0 0 48 48" fill="none" xmlns="http://www.w3.org/2000/svg">
  <!-- Gravity Well - Singularity weapon -->
  <circle cx="24" cy="24" r="12" fill="#8b5cf6" opacity="0.3"/>
  <circle cx="24" cy="24" r="8" fill="#a78bfa" opacity="0.5"/>
  <circle cx="24" cy="24" r="4" fill="#c4b5fd"/>
  <circle cx="24" cy="24" r="2" fill="#1e1b4b"/>
  <!-- Gravity pull lines -->
  <g stroke="#c4b5fd" stroke-width="1.5" fill="none" opacity="0.6">
    <path d="M8 24Q12 24 16 24"/>
    <path d="M40 24Q36 24 32 24"/>
    <path d="M24 8Q24 12 24 16"/>
    <path d="M24 40Q24 36 24 32"/>
    <path d="M12 12Q16 16 20 20"/>
    <path d="M36 12Q32 16 28 20"/>
    <path d="M12 36Q16 32 20 28"/>
    <path d="M36 36Q32 32 28 28"/>
  </g>
</svg>
