<svg width="48" height="48" viewBox="0 0 48 48" fill="none" xmlns="http://www.w3.org/2000/svg">
  <!-- Supernova Burst - Massive explosion -->
  <g opacity="0.3">
    <circle cx="24" cy="24" r="20" fill="#fb923c"/>
  </g>
  <g opacity="0.5">
    <circle cx="24" cy="24" r="15" fill="#f97316"/>
  </g>
  <circle cx="24" cy="24" r="10" fill="#fb923c" stroke="#ea580c" stroke-width="2"/>
  <circle cx="24" cy="24" r="5" fill="#fed7aa"/>
  <circle cx="24" cy="24" r="2" fill="#fff7ed"/>
  <!-- Explosion rays -->
  <g stroke="#fed7aa" stroke-width="2" stroke-linecap="round" opacity="0.8">
    <line x1="24" y1="4" x2="24" y2="12"/>
    <line x1="24" y1="36" x2="24" y2="44"/>
    <line x1="4" y1="24" x2="12" y2="24"/>
    <line x1="36" y1="24" x2="44" y2="24"/>
    <line x1="10" y1="10" x2="16" y2="16"/>
    <line x1="32" y1="32" x2="38" y2="38"/>
    <line x1="38" y1="10" x2="32" y2="16"/>
    <line x1="16" y1="32" x2="10" y2="38"/>
  </g>
  <!-- Secondary rays -->
  <g stroke="#fb923c" stroke-width="1.5" stroke-linecap="round" opacity="0.6">
    <line x1="24" y1="6" x2="24" y2="10"/>
    <line x1="24" y1="38" x2="24" y2="42"/>
    <line x1="6" y1="24" x2="10" y2="24"/>
    <line x1="38" y1="24" x2="42" y2="24"/>
  </g>
</svg>
